<svg width="200" height="200" viewBox="0 0 200 200" fill="none" xmlns="http://www.w3.org/2000/svg">
  <!-- Ears -->
  <polygon points="40,55 65,15 85,60" fill="#3a3d4d"/>
  <polygon points="48,53 65,26 77,57" fill="#ff9ebb"/>
  <polygon points="160,55 135,15 115,60" fill="#3a3d4d"/>
  <polygon points="152,53 135,26 123,57" fill="#ff9ebb"/>
  <!-- Head -->
  <ellipse cx="100" cy="110" rx="72" ry="62" fill="#2d3142"/>
  <!-- Cheeks -->
  <ellipse cx="65" cy="122" rx="14" ry="9" fill="#ff9ebb" opacity="0.4"/>
  <ellipse cx="135" cy="122" rx="14" ry="9" fill="#ff9ebb" opacity="0.4"/>
  <!-- Eyes -->
  <ellipse cx="70" cy="100" rx="12" ry="16" fill="#ffb703"/>
  <ellipse cx="130" cy="100" rx="12" ry="16" fill="#ffb703"/>
  <ellipse cx="70" cy="100" rx="5" ry="12" fill="#000000"/>
  <ellipse cx="130" cy="100" rx="5" ry="12" fill="#000000"/>
  <circle cx="67" cy="94" r="3" fill="#ffffff"/>
  <circle cx="127" cy="94" r="3" fill="#ffffff"/>
  <!-- Nose -->
  <polygon points="100,114 93,122 107,122" fill="#ff9ebb"/>
  <!-- Mouth -->
  <path d="M93 126 Q100 134 107 126" stroke="#ffffff" stroke-width="2.5" stroke-linecap="round" fill="none"/>
  <!-- Whiskers -->
  <line x1="25" y1="110" x2="60" y2="114" stroke="#e0e0e0" stroke-width="2" stroke-linecap="round"/>
  <line x1="20" y1="124" x2="58" y2="122" stroke="#e0e0e0" stroke-width="2" stroke-linecap="round"/>
  <line x1="175" y1="110" x2="140" y2="114" stroke="#e0e0e0" stroke-width="2" stroke-linecap="round"/>
  <line x1="180" y1="124" x2="142" y2="122" stroke="#e0e0e0" stroke-width="2" stroke-linecap="round"/>
  <!-- Focus Halo Badge -->
  <circle cx="100" cy="28" r="10" fill="#2dd4bf" opacity="0.8"/>
  <path d="M96 28 L99 31 L105 25" stroke="#ffffff" stroke-width="2" stroke-linecap="round" stroke-linejoin="round"/>
</svg>
